
        <svg xmlns="http://www.w3.org/2000/svg" xmlns:xlink="http://www.w3.org/1999/xlink" version="1.1" width="3187.5" height="1198.5775522381766" viewBox="0 0 3187.5 1198.5775522381766">
			
			<g transform="scale(9.375) translate(10, 10)">
				<defs id="SvgjsDefs1868"/><g id="SvgjsG1869" featureKey="symbolFeature-0" transform="matrix(1.2448117017162508,0,0,1.2448117017162508,-12.240233690907724,-8.316586675257165)" fill="#fff"><path xmlns="http://www.w3.org/2000/svg" d="M75.497,22.115H75.5V6.681c-7.167,4.111-9.047,9.819-9.047,9.819C61.432,14.242,55.863,12.986,50,12.986  c-5.87,0-11.446,1.259-16.473,3.523c0,0-1.86-5.717-9.027-9.828v14.972v10.167c0,0-0.042,4.208,2.667,8.917  c1.868,3.248,6.59,7.842,9.34,10.381c5.205,1.619,10.167,4.068,14.754,7.306c1.837,1.296,3.584,2.747,5.274,4.15  c2.67,2.217,5.431,4.509,8.518,6.148c5.602,2.975,12.558,3.16,21.701,0.561c1.945-4.386,3.132-9.173,3.367-14.197  C90.744,41.805,84.914,29.859,75.497,22.115z M43.758,41.175c-0.381,1.135-2.387,1.485-4.481,0.782  c-2.094-0.703-3.484-2.192-3.103-3.326c0.381-1.135,2.387-1.485,4.481-0.782C42.749,38.551,44.138,40.04,43.758,41.175z   M53.086,50.199l-0.778,1.906c-0.741,1.815-3.312,1.815-4.053,0l-0.778-1.906c-0.198-0.485,0.159-1.015,0.682-1.015h2.122h2.122  C52.927,49.184,53.283,49.714,53.086,50.199z M60.724,41.957c-2.094,0.703-4.101,0.353-4.481-0.782  c-0.381-1.134,1.009-2.624,3.103-3.326c2.094-0.703,4.101-0.353,4.481,0.782C64.207,39.765,62.818,41.254,60.724,41.957z"/><path xmlns="http://www.w3.org/2000/svg" d="M64.116,70.488c-3.269-1.736-6.11-4.095-8.858-6.376c-1.66-1.378-3.377-2.804-5.148-4.055  c-4.439-3.132-9.239-5.498-14.272-7.055L9.833,53.153c0,22.578,18.629,40.806,41.356,40.149c14.855-0.429,27.835-9.12,34.408-21.622  c-3.156,0.81-6.643,1.427-10.196,1.427C71.597,73.107,67.724,72.404,64.116,70.488z M30.499,59.754l-7.522,12.865  c-0.767,1.311-2.637,1.354-3.482,0.093c-3.055-4.558-4.836-10.041-4.836-15.94l14.061-0.095  C30.305,56.665,31.299,58.385,30.499,59.754z"/></g><g id="SvgjsG1870" featureKey="nameFeature-0" transform="matrix(2.39880059970015,0,0,2.39880059970015,116.16167791958513,-16.7858451145521)" fill="#fff"><path d="M12.059 35.608 c1.2128 0 2.1961 0.98332 2.1961 2.1961 s-0.98328 2.196 -2.196 2.196 c-5.7668 0 -10.459 -4.692 -10.459 -10.459 l0 -15.345 c0 -1.2128 0.98328 -2.196 2.196 -2.196 s2.196 0.98328 2.196 2.196 l0 5.2217 l6.0666 0 c1.2128 0 2.196 0.98328 2.196 2.196 s-0.98328 2.196 -2.196 2.196 l-6.0666 0 l0 5.7312 c0 3.3452 2.7215 6.0668 6.0668 6.0668 z M36.202 19.412 c1.2128 0 2.1962 0.98328 2.1962 2.196 l0 15.338 c0 5.7668 -4.692 10.459 -10.459 10.459 c-1.2128 0 -2.196 -0.98328 -2.196 -2.196 s0.98328 -2.196 2.196 -2.196 c2.9375 0 5.3936 -2.0992 5.9484 -4.876 c-1.6902 1.1732 -3.7399 1.8634 -5.9488 1.8634 c-5.7668 0 -10.459 -4.692 -10.459 -10.459 l0 -7.9333 c0 -1.2128 0.98328 -2.196 2.196 -2.196 s2.196 0.98328 2.196 2.196 l0 7.9333 c0 3.3452 2.7215 6.0668 6.0668 6.0668 s6.0668 -2.7215 6.0668 -6.0668 l0 -7.9333 c0 -1.2128 0.98328 -2.196 2.196 -2.196 z M61.149 19.412 c4.4008 0 7.9804 3.5802 7.9804 7.9804 l0 10.412 c0 1.2128 -0.98328 2.196 -2.196 2.196 s-2.196 -0.98328 -2.196 -2.196 l0 -10.412 c0 -1.9784 -1.6097 -3.5881 -3.5884 -3.5881 c-1.9784 0 -3.5881 1.6094 -3.5881 3.5881 l0 10.412 c0 1.2128 -0.98328 2.196 -2.196 2.196 s-2.196 -0.98328 -2.196 -2.196 l0 -10.412 c0 -1.9784 -1.6094 -3.5881 -3.5881 -3.5881 s-3.5884 1.6094 -3.5884 3.5881 l0 10.412 c0 1.2128 -0.98328 2.196 -2.196 2.196 s-2.196 -0.98328 -2.196 -2.196 l0 -16.196 c0 -1.2128 0.98328 -2.196 2.196 -2.196 c0.78592 0 1.4736 0.4142 1.8615 1.0349 c1.1595 -0.65744 2.4978 -1.0349 3.923 -1.0349 c2.2748 0 4.3288 0.9586 5.784 2.4912 c1.4549 -1.5326 3.509 -2.4912 5.784 -2.4912 z M82.779 35.608 c1.2128 0 2.1961 0.98332 2.1961 2.1961 s-0.98328 2.196 -2.196 2.196 c-5.7668 0 -10.459 -4.692 -10.459 -10.459 l0 -15.345 c0 -1.2128 0.98328 -2.196 2.196 -2.196 s2.196 0.98328 2.196 2.196 l0 5.2217 l6.0666 0 c1.2128 0 2.196 0.98328 2.196 2.196 s-0.98328 2.196 -2.196 2.196 l-6.0666 0 l0 5.7312 c0 3.3452 2.7215 6.0668 6.0668 6.0668 z"/></g>
			</g>
		</svg>
	